<svg width="32" height="32" viewBox="0 0 32 32" fill="none" xmlns="http://www.w3.org/2000/svg">
<rect width="32" height="32" rx="16" fill="black"/>
<rect width="32" height="32" rx="16" stroke="black"/>
<g clip-path="url(#clip0_805_634)">
<path d="M17.9716 28C9.90767 30.3912 0.93304 22.7059 5.00279 11.0588C4 16.353 11.9203 18.9083 18.8793 20.9412C23.0935 22.1723 26.0355 25.6088 17.9716 28Z" fill="url(#paint0_linear_805_634)"/>
<path d="M14.0284 3.99999C22.0923 1.60877 31.067 9.2941 26.9972 20.9412C28 15.647 20.0797 13.0917 13.1207 11.0588C8.9065 9.82774 5.9645 6.3912 14.0284 3.99999Z" fill="url(#paint1_linear_805_634)" fill-opacity="0.5"/>
<path d="M14.0284 3.99999C22.0923 1.60877 31.067 9.2941 26.9972 20.9412C28 15.647 20.0797 13.0917 13.1207 11.0588C8.9065 9.82774 5.9645 6.3912 14.0284 3.99999Z" fill="white"/>
</g>
<defs>
<linearGradient id="paint0_linear_805_634" x1="4.2642" y1="15.1089" x2="24.0706" y2="26.8917" gradientUnits="userSpaceOnUse">
<stop stop-color="#B8C2FF"/>
<stop offset="1" stop-color="#5E6AD2"/>
</linearGradient>
<linearGradient id="paint1_linear_805_634" x1="18.4749" y1="20.9412" x2="18.4749" y2="3.56359" gradientUnits="userSpaceOnUse">
<stop stop-color="#B8C2FF"/>
<stop offset="1" stop-color="#5E6AD2"/>
</linearGradient>
<clipPath id="clip0_805_634">
<rect x="4" y="4" width="24" height="24" rx="12" fill="white"/>
</clipPath>
</defs>
</svg>
